<svg width="52" height="52" viewBox="0 0 52 52" fill="none" xmlns="http://www.w3.org/2000/svg">
  <path
    d="M26 0C22.5856 6.97369e-06 19.2047 0.672527 16.0502 1.97916C12.8957 3.2858 10.0295 5.20096 7.61518 7.6153C5.20086 10.0296 3.28572 12.8959 1.9791 16.0504C0.672485 19.2048 -1.39472e-05 22.5858 2.16945e-10 26.0002C0.00984566 32.8893 2.75347 39.4936 7.62834 44.3615C12.5032 49.2295 19.1108 51.9636 26 51.9636C32.8892 51.9636 39.4967 49.2295 44.3716 44.3615C49.2465 39.4936 51.9901 32.89 52 26.0008C52 19.1052 49.2607 12.4913 44.3848 7.61533C39.5088 2.73935 32.8956 4.2252e-05 26 0ZM41.7274 14.5777L25.9672 26.6808L10.2615 14.5777H41.7274ZM7.81992 15.8852L20.5207 25.6723L7.81992 36.0291V15.8852ZM10.1045 37.423L22.5769 27.2567L25.9622 29.8659L29.5371 27.1204L41.9445 37.4231L10.1045 37.423ZM44.18 36.0018L31.5876 25.5421L44.18 15.8742V36.0018Z"
    fill="currentColor" />
</svg>