<svg width="194" height="50" viewBox="0 0 194 50" fill="none" xmlns="http://www.w3.org/2000/svg">
  <path fill-rule="evenodd" clip-rule="evenodd"
    d="M43.4055 17.6139C43.3108 16.6401 43.2634 15.6322 43.2634 14.5902C43.2634 13.5532 43.3121 12.5498 43.4055 11.5913C43.4848 10.6746 43.8109 9.79636 44.349 9.04995C45.0059 8.22138 45.8938 7.6063 46.9004 7.28256C50.1722 6.41173 53.6148 6.41173 56.8865 7.28256C57.8898 7.60728 58.7743 8.22236 59.4279 9.04995C59.967 9.79599 60.2935 10.6743 60.3727 11.5913C60.4649 12.5498 60.5135 13.5532 60.5135 14.5902C60.5119 15.6326 60.4649 16.6405 60.3727 17.6139C60.2953 18.5401 59.9689 19.4282 59.4279 20.184C58.7738 21.01 57.8894 21.6233 56.8865 21.9464C53.6156 22.8238 50.1713 22.8238 46.9004 21.9464C45.8943 21.6243 45.0064 21.011 44.349 20.184C43.8089 19.4278 43.483 18.5399 43.4055 17.6139ZM35.8586 13.5245V15.6658C35.8471 17.441 36.0829 19.2092 36.5591 20.9194C37.007 22.5315 37.8506 24.0062 39.0132 25.2094C40.3312 26.5307 41.9405 27.5245 43.7121 28.111C46.1109 28.8906 48.6256 29.2528 51.1469 29.1817H52.6313C55.151 29.2531 57.6641 28.891 60.0611 28.111C61.8345 27.526 63.4454 26.5321 64.7637 25.2094C65.9236 24.0049 66.7653 22.5305 67.2129 20.9194C67.6895 19.2092 67.9257 17.4411 67.9146 15.6658V13.5245C67.926 11.7476 67.6898 9.97772 67.2129 8.26597C66.7622 6.65501 65.9209 5.18015 64.7637 3.97216C63.4415 2.65533 61.8317 1.66333 60.0611 1.07428C57.6632 0.298687 55.1505 -0.0617102 52.6313 0.0086216H51.1469C48.6261 -0.0613684 46.1118 0.299013 43.7121 1.07428C41.9433 1.66486 40.335 2.65669 39.0132 3.97216C37.8533 5.17888 37.0101 6.65404 36.5591 8.26597C36.0825 9.97778 35.8468 11.7476 35.8586 13.5245ZM26.335 7.40528V0.833064H0V28.3659H7.39609V18.0881H22.2207V11.5196H7.39609V7.40528H26.335ZM93.669 6.58271C92.7093 6.58271 91.5215 6.6126 90.1143 6.6662C88.7071 6.72478 87.3149 6.82201 85.9463 6.95787V12.791C87.2376 12.9518 88.4541 13.054 89.6032 13.0976C90.7524 13.1362 91.6872 13.1562 92.3977 13.1562C93.6757 13.1778 94.9536 13.1028 96.2204 12.9318C96.925 12.8528 97.6041 12.6219 98.2108 12.255C98.4081 12.1248 98.5768 11.9557 98.7067 11.7581C98.8365 11.5606 98.9248 11.3386 98.9661 11.1059C99.0542 10.5507 99.0946 9.98903 99.087 9.42697C99.088 9.07339 99.0639 8.72018 99.0147 8.37002C98.9373 7.99909 98.7234 7.67079 98.4153 7.4502C97.9282 7.11725 97.3729 6.8975 96.79 6.80705C95.7591 6.63366 94.7141 6.55855 93.669 6.58271ZM106.897 28.3659H99.7551L94.2486 19.7334C92.7629 19.7334 91.342 19.7184 89.9734 19.6898C88.6239 19.667 87.2779 19.545 85.9463 19.3246V28.3659H78.5515V0.833092C80.9072 0.56014 83.3788 0.354067 85.9663 0.214878C88.5513 0.0790298 91.0894 0.0108918 93.5805 0.010468H94.7346C96.6638 -0.0403976 98.5895 0.202523 100.446 0.730886C101.778 1.11503 103.011 1.78064 104.064 2.68273C104.934 3.4586 105.585 4.44926 105.952 5.55567C106.312 6.68582 106.491 7.86573 106.483 9.0518V10.697C106.505 12.3202 106.157 13.927 105.466 15.3959C104.682 16.8948 103.378 18.0563 101.799 18.6627L106.897 26.7207V28.3659ZM132.698 22.7372H136.48L144.203 11.9284V28.3659H151.598V0.833064H144.203L134.597 14.9235L124.976 0.833064H117.58V28.3659H124.976V11.9284L132.698 22.7372ZM172.968 16.8554H181.342L177.154 7.45017L172.968 16.8554ZM167.875 28.3659H161.219V26.7206L173.454 0.833064H180.85L193.095 26.7206V28.3659H186.439L184.053 23.0151H170.212L167.875 28.3659ZM38.5653 44.8205L153.525 44.9514C154.217 44.9564 154.766 45.7989 154.761 47.0603C154.761 48.3216 154.212 49.1629 153.384 49.1629L38.5603 49.0271C37.7327 49.0271 37.1818 48.1845 37.1818 46.9244C37.1818 45.6581 37.7377 44.8205 38.5653 44.8205Z"
    fill="#currentColor" />
</svg>