<svg width="52" height="53" viewBox="0 0 52 53" fill="none" xmlns="http://www.w3.org/2000/svg">
  <path
    d="M26 1.95255e-09C22.5856 -4.18412e-05 19.2047 0.672439 16.0502 1.97905C12.8957 3.28565 10.0295 5.2008 7.61516 7.61513C5.20083 10.0295 3.28568 12.8957 1.97907 16.0502C0.672466 19.2047 -1.52888e-05 22.5856 2.65544e-05 26C-0.00485754 29.4175 0.664048 32.8031 1.96848 35.9618C3.27292 39.1206 5.18728 41.9912 7.60209 44.4094C10.0169 46.8277 12.8848 48.7462 16.0416 50.0551C19.1985 51.3641 22.5825 52.0378 26 52.0378C29.4175 52.0378 32.8015 51.3641 35.9584 50.0551C39.1152 48.7462 41.9831 46.8277 44.3979 44.4094C46.8127 41.9912 48.7271 39.1206 50.0315 35.9618C51.336 32.8031 52.0049 29.4181 52 26.0006C52 19.105 49.2607 12.4912 44.3848 7.61524C39.5088 2.7393 32.8956 1.4086e-05 26 1.95255e-09ZM38.1832 39.588C36.9993 40.559 35.609 41.2461 34.1186 41.5969C32.6282 41.9477 31.0773 41.9527 29.5846 41.6117C26.3274 40.7574 23.3501 39.0665 20.9478 36.7069C18.4297 34.4015 16.2213 31.7791 14.378 28.9054C13.4875 27.5893 12.7555 26.1727 12.197 24.685C11.6738 23.0969 11.3405 21.4524 11.2039 19.7859C11.2133 19.0708 11.2345 19.1572 11.2472 19.3975C11.2974 18.043 11.6207 16.7127 12.1978 15.4863C12.775 14.2599 13.5939 13.1628 14.6056 12.2608C15.4739 11.4581 16.6559 10.0099 17.9636 10.1615C19.3309 10.3299 20.3237 11.8438 21.0019 12.907C22.1737 14.7402 24.0835 17.4315 22.3309 19.4824C21.4902 20.4639 20.172 20.9795 19.4119 22.0314C19.1227 22.5905 18.9898 23.2172 19.0271 23.8455C19.0644 24.4738 19.2705 25.0804 19.6238 25.6013C20.9651 28.1124 22.8038 30.3239 25.0279 32.1009C25.4801 32.5741 26.0241 32.9501 26.6267 33.2058C27.2292 33.4614 27.8776 33.5914 28.5321 33.5878C29.8616 33.3711 30.892 31.8949 31.8797 31.0922C34.3862 29.0633 37.137 31.8303 38.9812 33.4794C39.4847 33.8274 39.9073 34.2799 40.22 34.8061C40.5328 35.3322 40.7284 35.9196 40.7936 36.5282C40.7388 37.7975 39.0792 38.8502 38.1832 39.588Z"
    fill="currentColor" />
</svg>